<svg xmlns="http://www.w3.org/2000/svg" width="33" height="29" viewBox="0 0 33 29" fill="none">
<path d="M16.5 28.0835C25.6047 28.0835 33 21.7896 33 14.0408C33 6.29209 25.6047 -0.0018316 16.5 -0.00183228C7.3953 -0.00183296 2.23843e-06 6.29209 1.44248e-06 14.0408C6.46517e-07 21.7896 7.3953 28.0835 16.5 28.0835ZM16.5 26.8624C8.17154 26.8624 1.43478 21.1289 1.43478 14.0408C1.43478 6.95272 8.17154 1.21927 16.5 1.21927C24.8285 1.21927 31.5652 6.95272 31.5652 14.0408C31.5652 21.1289 24.8285 26.8624 16.5 26.8624ZM19.4592 19.5358C19.619 19.5215 19.7703 19.4595 19.8852 19.3641L25.5122 14.556L25.5795 14.5369C25.5963 14.525 25.6103 14.5131 25.6243 14.4987L25.6243 14.4797C25.6411 14.4677 25.6551 14.4558 25.6692 14.4415C25.686 14.4296 25.7 14.4177 25.714 14.4033C25.714 14.3962 25.714 14.3914 25.714 14.3843C25.7308 14.3723 25.7448 14.3604 25.7588 14.3461C25.7588 14.339 25.7588 14.3342 25.7588 14.327C25.8037 14.2626 25.8345 14.1911 25.8485 14.1172C25.8485 14.11 25.8485 14.1052 25.8485 14.0981C25.8485 14.079 25.8485 14.0599 25.8485 14.0408C25.8485 14.0289 25.8485 14.0146 25.8485 14.0027C25.8485 13.9955 25.8485 13.9907 25.8485 13.9836C25.8373 13.9025 25.8065 13.8262 25.7588 13.7546C25.7532 13.7427 25.7448 13.7284 25.7364 13.7165C25.728 13.7093 25.7224 13.7046 25.714 13.6974C25.7084 13.6855 25.7 13.6712 25.6916 13.6592C25.6832 13.6521 25.6776 13.6473 25.6692 13.6402C25.6608 13.633 25.6551 13.6282 25.6467 13.6211C25.6383 13.6139 25.6327 13.6092 25.6243 13.602C25.5851 13.5662 25.5403 13.5328 25.4898 13.5066L19.8852 8.71759C19.5994 8.47433 19.1398 8.47433 18.8539 8.71759C18.5681 8.96086 18.5681 9.35199 18.8539 9.59526L23.3601 13.4303L7.89131 13.4303C7.63349 13.4279 7.39249 13.5424 7.26079 13.7332C7.13188 13.924 7.13188 14.1577 7.26079 14.3485C7.39249 14.5393 7.63349 14.6538 7.89131 14.6514L23.3601 14.6514L18.8539 18.4864C18.6213 18.67 18.5597 18.961 18.6998 19.2019C18.8371 19.4452 19.1482 19.5787 19.4592 19.5358Z" fill="#141619"/>
</svg>