<svg width="26" height="25" viewBox="0 0 26 25" fill="none" xmlns="http://www.w3.org/2000/svg">
<path fill-rule="evenodd" clip-rule="evenodd" d="M0.649291 0.00343938C0.504723 0.0293587 0.370327 0.0946094 0.261192 0.191826C0.152056 0.289043 0.0725024 0.414354 0.0314609 0.553775C-0.00958055 0.693195 -0.0104847 0.841177 0.0288501 0.981077C0.068185 1.12098 0.146201 1.24728 0.25414 1.34579L11.5406 12.4995L0.25414 23.6532C0.179511 23.7253 0.119987 23.8112 0.0789675 23.9061C0.0379485 24.0009 0.0162405 24.1028 0.0150787 24.2059C0.0139169 24.3091 0.033324 24.4114 0.0721964 24.5072C0.111069 24.6029 0.168643 24.6901 0.241629 24.7639C0.314615 24.8376 0.401585 24.8964 0.49757 24.9369C0.593555 24.9774 0.696677 24.9988 0.801042 25C0.905408 25.0011 1.00897 24.9819 1.10583 24.9434C1.20268 24.905 1.29091 24.8481 1.3655 24.7759L12.6767 13.6222L23.9632 24.7759C24.0378 24.8481 24.126 24.905 24.2229 24.9434C24.3197 24.9819 24.4233 25.0011 24.5277 25C24.632 24.9988 24.7351 24.9774 24.8311 24.9369C24.9271 24.8964 25.0141 24.8376 25.0871 24.7639C25.16 24.6901 25.2176 24.6029 25.2565 24.5072C25.2954 24.4114 25.3148 24.3091 25.3136 24.2059C25.3125 24.1028 25.2907 24.0009 25.2497 23.9061C25.2087 23.8112 25.1492 23.7253 25.0746 23.6532L13.7881 12.4995L25.0746 1.34579C25.1889 1.23654 25.2672 1.09573 25.2993 0.941798C25.3313 0.787862 25.3157 0.627935 25.2543 0.482939C25.1929 0.337943 25.0888 0.214644 24.9553 0.129094C24.8219 0.0435442 24.6655 -0.000256768 24.5065 0.00343938C24.3036 0.00501169 24.1091 0.0836611 23.9632 0.223097L12.6767 11.3768L1.3655 0.223097C1.29026 0.151124 1.20131 0.094632 1.10379 0.0569237C1.00628 0.0192153 0.902157 0.00104262 0.797473 0.00343938C0.748188 -0.00114646 0.698576 -0.00114646 0.649291 0.00343938Z" fill="#161616"/>
</svg>
