<svg aria-hidden="true" style="position: absolute; width: 20px; height: 20px; overflow: hidden;"
    version="1.1" xmlns="http://www.w3.org/2000/svg" xmlns:xlink="http://www.w3.org/1999/xlink">
    <defs>
        <symbol id="icon-arrow" viewBox="0 0 51 32">
            <path
                d="M49.509 17.509c0.833-0.833 0.833-2.184 0-3.017l-13.577-13.576c-0.833-0.833-2.184-0.833-3.017 0s-0.833 2.184 0 3.017l12.068 12.068-12.068 12.068c-0.833 0.833-0.833 2.184 0 3.017s2.184 0.833 3.017 0l13.577-13.577zM0 18.133h48v-4.267h-48v4.267z"></path>
        </symbol>
        <symbol
            id="icon-circle-arrow" viewBox="0 0 32 32">
            <path
                d="M16 32c8.829 0 16-7.171 16-16s-7.171-16-16-16c-8.829 0-16 7.171-16 16s7.171 16 16 16zM16 30.609c-8.076 0-14.609-6.533-14.609-14.609s6.533-14.609 14.609-14.609c8.076 0 14.609 6.533 14.609 14.609s-6.533 14.609-14.609 14.609zM18.87 22.261c0.155-0.016 0.302-0.087 0.413-0.196l5.456-5.478 0.065-0.022c0.016-0.014 0.030-0.027 0.043-0.043v-0.022c0.016-0.014 0.030-0.027 0.043-0.043 0.016-0.014 0.030-0.027 0.043-0.043 0-0.008 0-0.014 0-0.022 0.016-0.014 0.030-0.027 0.043-0.043 0-0.008 0-0.014 0-0.022 0.044-0.073 0.073-0.155 0.087-0.239 0-0.008 0-0.014 0-0.022 0-0.022 0-0.043 0-0.065 0-0.014 0-0.030 0-0.043 0-0.008 0-0.014 0-0.022-0.011-0.092-0.041-0.179-0.087-0.261-0.005-0.014-0.014-0.030-0.022-0.043-0.008-0.008-0.014-0.014-0.022-0.022-0.005-0.014-0.014-0.030-0.022-0.043-0.008-0.008-0.014-0.014-0.022-0.022s-0.014-0.014-0.022-0.022c-0.008-0.008-0.014-0.014-0.022-0.022-0.038-0.041-0.081-0.079-0.13-0.109l-5.435-5.457c-0.277-0.277-0.723-0.277-1 0s-0.277 0.723 0 1l4.37 4.37h-15c-0.25-0.003-0.484 0.128-0.611 0.345-0.125 0.217-0.125 0.484 0 0.701 0.128 0.217 0.361 0.348 0.611 0.345h15l-4.37 4.37c-0.226 0.209-0.285 0.541-0.149 0.815 0.133 0.277 0.435 0.429 0.736 0.38z"></path>
        </symbol>
        <symbol
            id="icon-facebook" viewBox="0 0 32 32">
            <path
                d="M16 1.92c-7.776 0-14.080 6.304-14.080 14.080 0 7.059 5.2 12.888 11.976 13.906v-10.174h-3.484v-3.701h3.484v-2.463c0-4.077 1.987-5.868 5.375-5.868 1.623 0 2.481 0.12 2.888 0.175v3.231h-2.312c-1.439 0-1.941 1.364-1.941 2.901v2.023h4.216l-0.572 3.701h-3.644v10.204c6.872-0.932 12.174-6.808 12.174-13.936 0-7.776-6.304-14.080-14.080-14.080z"></path>
        </symbol>
        <symbol
            id="icon-instagram" viewBox="0 0 32 32">
            <path
                d="M10.24 1.92c-4.589 0-8.32 3.731-8.32 8.32v11.52c0 4.589 3.731 8.32 8.32 8.32h11.52c4.589 0 8.32-3.731 8.32-8.32v-11.52c0-4.589-3.731-8.32-8.32-8.32h-11.52zM23.68 7.040c0.704 0 1.28 0.576 1.28 1.28s-0.576 1.28-1.28 1.28c-0.704 0-1.28-0.576-1.28-1.28s0.576-1.28 1.28-1.28zM16 8.96c3.885 0 7.040 3.155 7.040 7.040s-3.155 7.040-7.040 7.040c-3.885 0-7.040-3.155-7.040-7.040s3.155-7.040 7.040-7.040zM16 10.24c-3.174 0-5.76 2.586-5.76 5.76s2.586 5.76 5.76 5.76c3.174 0 5.76-2.586 5.76-5.76s-2.586-5.76-5.76-5.76z"></path>
        </symbol>
        <symbol
            id="icon-close" viewBox="0 0 33 32">
            <path
                d="M0.831 0.004c-0.185 0.033-0.357 0.117-0.497 0.241s-0.242 0.285-0.294 0.463c-0.053 0.178-0.054 0.368-0.003 0.547s0.15 0.341 0.288 0.467l14.447 14.277-14.447 14.277c-0.096 0.092-0.172 0.202-0.224 0.324s-0.080 0.252-0.082 0.384c-0.002 0.132 0.023 0.263 0.073 0.386s0.123 0.234 0.217 0.329c0.093 0.094 0.205 0.17 0.328 0.221s0.255 0.079 0.388 0.081c0.134 0.001 0.266-0.023 0.39-0.072s0.237-0.122 0.332-0.214l14.478-14.277 14.447 14.277c0.096 0.092 0.208 0.165 0.332 0.214s0.256 0.074 0.39 0.072c0.134-0.002 0.265-0.029 0.388-0.081s0.234-0.127 0.328-0.221c0.093-0.094 0.167-0.206 0.217-0.329s0.075-0.254 0.073-0.386c-0.001-0.132-0.029-0.262-0.082-0.384s-0.129-0.231-0.224-0.324l-14.447-14.277 14.447-14.277c0.146-0.14 0.247-0.32 0.288-0.517s0.021-0.402-0.058-0.587-0.212-0.343-0.383-0.453c-0.171-0.11-0.371-0.166-0.574-0.161-0.26 0.002-0.509 0.103-0.695 0.281l-14.447 14.277-14.478-14.277c-0.096-0.092-0.21-0.164-0.335-0.213s-0.258-0.072-0.392-0.068c-0.063-0.006-0.127-0.006-0.19 0z"></path>
        </symbol>
    </defs>
</svg>
    