<svg aria-hidden="true" style="position: absolute; width: 20px; height: 20px; overflow: hidden;"
    version="1.1" xmlns="http://www.w3.org/2000/svg" xmlns:xlink="http://www.w3.org/1999/xlink">
    <defs>
        <symbol id="icon-arrow" viewBox="0 0 51 32">
            <path
                d="M49.509 17.509c0.833-0.833 0.833-2.184 0-3.017l-13.577-13.576c-0.833-0.833-2.184-0.833-3.017 0s-0.833 2.184 0 3.017l12.068 12.068-12.068 12.068c-0.833 0.833-0.833 2.184 0 3.017s2.184 0.833 3.017 0l13.577-13.577zM0 18.133h48v-4.267h-48v4.267z"></path>
        </symbol>
        <symbol id="icon-circle-arrow" viewBox="0 0 32 32">
            <path
                d="M16 32c8.829 0 16-7.171 16-16s-7.171-16-16-16c-8.829 0-16 7.171-16 16s7.171 16 16 16zM16 30.609c-8.076 0-14.609-6.533-14.609-14.609s6.533-14.609 14.609-14.609c8.076 0 14.609 6.533 14.609 14.609s-6.533 14.609-14.609 14.609zM18.87 22.261c0.155-0.016 0.302-0.087 0.413-0.196l5.456-5.478 0.065-0.022c0.016-0.014 0.030-0.027 0.043-0.043v-0.022c0.016-0.014 0.030-0.027 0.043-0.043 0.016-0.014 0.030-0.027 0.043-0.043 0-0.008 0-0.014 0-0.022 0.016-0.014 0.030-0.027 0.043-0.043 0-0.008 0-0.014 0-0.022 0.044-0.073 0.073-0.155 0.087-0.239 0-0.008 0-0.014 0-0.022 0-0.022 0-0.043 0-0.065 0-0.014 0-0.030 0-0.043 0-0.008 0-0.014 0-0.022-0.011-0.092-0.041-0.179-0.087-0.261-0.005-0.014-0.014-0.030-0.022-0.043-0.008-0.008-0.014-0.014-0.022-0.022-0.005-0.014-0.014-0.030-0.022-0.043-0.008-0.008-0.014-0.014-0.022-0.022s-0.014-0.014-0.022-0.022c-0.008-0.008-0.014-0.014-0.022-0.022-0.038-0.041-0.081-0.079-0.13-0.109l-5.435-5.457c-0.277-0.277-0.723-0.277-1 0s-0.277 0.723 0 1l4.37 4.37h-15c-0.25-0.003-0.484 0.128-0.611 0.345-0.125 0.217-0.125 0.484 0 0.701 0.128 0.217 0.361 0.348 0.611 0.345h15l-4.37 4.37c-0.226 0.209-0.285 0.541-0.149 0.815 0.133 0.277 0.435 0.429 0.736 0.38z"></path>
        </symbol>
    </defs>
</svg>
    