<svg width="952" height="243" fill="none" xmlns="http://www.w3.org/2000/svg">
  <path d="M124.148 127.811c-15.2-7.6-89.333-47.5-124-66.5-.333-15.667 0-48.9 0-56.5 6-5.2 18.834-5.167 24.5-4.5 3.334.667 13.3 3.2 26.5 8 10.8 6.8 32.167 8.833 41.5 9l29.5-2.5c18-.333 56.2-1 65-1 8.4-1.2 25.167 2.5 32.5 4.5l41.5 9.5c7.334 1.333 24.4 4 34 4 11.5-.5 16.5-4.5 20.5-7 3.2-2 9.334-.5 12 .5 5.667 3 19 8.6 27 7 10-2 35 3.5 53 7 14.4 2.8 31.667-2.5 38.5-5.5 9.334-5.5 30.1-17.7 38.5-22.5 8.4-4.8 19.167.667 23.5 4l38 22c22.167 11.667 67.2 35.4 70 37 2.8 1.6 34.167 16.333 49.5 23.5l53.5 23.5c4.833 2.333 21.5 8.6 49.5 15 29.5-2 89 36 96 38 5.6 1.6 60.333 41.667 87 61.5l-16.5 6.5c-17.167-5.833-53.2-18.1-60-20.5-8.5-3-28.5-9.5-61.5-20-16.8-9.2-53.333-10.167-69.5-9.5l-201-3c-65.667-.833-199.7-2-210.5 0-10.8 2-106.833-12.833-153.5-20.5-12-10.5-39.8-33.4-55-41Z" fill="url(#a)"/>
  <defs>
    <linearGradient id="a" x1="488.5" y1="31" x2="476" y2="185" gradientUnits="userSpaceOnUse">
      <stop stop-color="#D9E0FD"/>
      <stop offset="1" stop-color="#CBDBFF"/>
    </linearGradient>
  </defs>
</svg>
