<svg width="1099" height="299" fill="none" xmlns="http://www.w3.org/2000/svg">
  <path d="M80.204 53.097 0 84.085l80.712 43.983c32.995 15.493 103.047 48.181 119.291 54.978 20.305 8.496 68.021 21.491 70.052 20.492 1.624-.8 26.734 8.996 39.086 13.994 7.615 3.332 25.584 11.496 36.549 17.493 10.152 1.999 67.514 43.483 94.925 63.975 6.261-2.166 20.61-7.097 27.919-9.496 5.686-3.599 21.659-4.832 28.935-4.998l34.01-10.996 125.891-47.981c8.967-2.832 28.528-8.197 35.025-6.997 6.498 1.199 23.689-5.498 31.473-8.997 13.875-5.997 43.757-18.992 52.285-22.991 8.528-3.998 49.239-6.33 68.529-6.997 13.198-.5 42.64-1.499 54.823-1.499 11.371 1.199 35.533-1.5 46.193-2.999l58.882-14.494c13.71-3.332 42.85-10.396 49.75-11.996 6.09-2.798 32.32-4.498 44.67-4.998v-25.489l-54.32-1-133.5-2.999-126.905-2.999-44.671-2.499c-9.645-1.666-30.66-5.498-37.564-7.497-6.091 0-36.549-14.994-50.762-22.49-11.371-5.998-23.351-7.165-27.919-6.998-3.046-.167-12.386-.5-25.381-.5-11.371-2.799-13.537-3.165-13.198-2.999h-5.584l-17.259 1.5c-9.138.666-29.442 2.299-37.564 3.498-8.122 1.2-16.244-1.5-19.29-2.998l-30.457-15.994C469.55 51.265 457.57 45.2 450.26 43.6c-7.31-1.6-23.012-1.333-29.95-1-6.43.667-20.711 2.5-26.396 4.498-5.685 2-13.875 2.166-17.259 2-2.877-.333-11.168-3.199-21.32-11.995-12.691-10.996-15.736-11.496-20.305-13.495-3.655-1.6-11.337-2-14.721-2l-22.843.5H283.76c-2.03-1.166-6.599-4.498-8.629-8.496-1.219-3.999-6.261-4.998-8.63-4.998l-8.629-.5-29.95-4.498c-5.584-.833-18.173-2.7-23.858-3.5-5.686-.799-11.506 2.666-13.706 4.5L169.545 18.11c-4.06 1.999-14.619 5.997-24.365 5.997-12.183 0-7.615 0-32.996 7.997C96.347 45.3 84.265 51.597 80.204 53.097Z" fill="url(#a)"/>
  <path d="M80.204 53.097 0 84.085l80.712 43.983c32.995 15.493 103.047 48.181 119.291 54.978 20.305 8.496 68.021 21.491 70.052 20.492 1.624-.8 26.734 8.996 39.086 13.994 7.615 3.332 25.584 11.496 36.549 17.493 10.152 1.999 67.514 43.483 94.925 63.975 6.261-2.166 20.61-7.097 27.919-9.496 5.686-3.599 21.659-4.832 28.935-4.998l34.01-10.996 125.891-47.981c8.967-2.832 28.528-8.197 35.025-6.997 6.498 1.199 23.689-5.498 31.473-8.997 13.875-5.997 43.757-18.992 52.285-22.991 8.528-3.998 49.239-6.33 68.529-6.997 13.198-.5 42.64-1.499 54.823-1.499 11.371 1.199 35.533-1.5 46.193-2.999l58.882-14.494c13.71-3.332 42.85-10.396 49.75-11.996 6.09-2.798 32.32-4.498 44.67-4.998v-25.489l-54.32-1-133.5-2.999-126.905-2.999-44.671-2.499c-9.645-1.666-30.66-5.498-37.564-7.497-6.091 0-36.549-14.994-50.762-22.49-11.371-5.998-23.351-7.165-27.919-6.998-3.046-.167-12.386-.5-25.381-.5-11.371-2.799-13.537-3.165-13.198-2.999h-5.584l-17.259 1.5c-9.138.666-29.442 2.299-37.564 3.498-8.122 1.2-16.244-1.5-19.29-2.998l-30.457-15.994C469.55 51.265 457.57 45.2 450.26 43.6c-7.31-1.6-23.012-1.333-29.95-1-6.43.667-20.711 2.5-26.396 4.498-5.685 2-13.875 2.166-17.259 2-2.877-.333-11.168-3.199-21.32-11.995-12.691-10.996-15.736-11.496-20.305-13.495-3.655-1.6-11.337-2-14.721-2l-22.843.5H283.76c-2.03-1.166-6.599-4.498-8.629-8.496-1.219-3.999-6.261-4.998-8.63-4.998l-8.629-.5-29.95-4.498c-5.584-.833-18.173-2.7-23.858-3.5-5.686-.799-11.506 2.666-13.706 4.5L169.545 18.11c-4.06 1.999-14.619 5.997-24.365 5.997-12.183 0-7.615 0-32.996 7.997C96.347 45.3 84.265 51.597 80.204 53.097Z" fill="url(#b)" fill-opacity=".2"/>
  <defs>
    <linearGradient id="a" x1="439.6" y1="42.983" x2="461.751" y2="279.454" gradientUnits="userSpaceOnUse">
      <stop stop-color="#C7DBFC"/>
      <stop offset="1" stop-color="#E6EAFF"/>
    </linearGradient>
    <linearGradient id="b" x1="1043.16" y1="149.941" x2="1093.21" y2="130.428" gradientUnits="userSpaceOnUse">
      <stop stop-color="#ECEBFF"/>
      <stop offset="1" stop-color="#ECEAFF"/>
    </linearGradient>
  </defs>
</svg>
