<svg width="1437" height="349" fill="none" xmlns="http://www.w3.org/2000/svg">
  <path d="M292.254 148.061C212.971 140.406 64.384 46.164 0 0c11.326 5.64 94.047 14.773 133.992 18.634l271.523 2.517c22.585 1.008 81.305 3.022 135.509 3.022 51.776-4.834 94.721 7.05 109.722 13.598 27.809 9.904 89.597 31.626 114.272 39.28 24.675 7.656 103.654 16.956 140.059 20.649 41.631 7.218 132.783 21.252 164.333 19.641 31.55-1.612 74.16 17.458 91.52 27.194 19.55 10.408 70.38 35.958 117.3 54.894 37.22 26.59 121.35 42.638 158.77 47.339V349l-129.44-32.734-219.44-81.585c-37.25-13.094-131.974-38.476-212.875-35.252-73.215 17.727-213.207 7.386-274.051 0-69.946-6.044-229.657-24.778-308.94-51.368Z" fill="url(#a)"/>
  <defs>
    <linearGradient id="a" x1="650.24" y1="44.318" x2="636.194" y2="191.885" gradientUnits="userSpaceOnUse">
      <stop stop-color="#B8D1F5"/>
      <stop offset="1" stop-color="#EEEBFE"/>
    </linearGradient>
  </defs>
</svg>
