<svg width="680" height="340" fill="none" xmlns="http://www.w3.org/2000/svg">
  <path d="M62.423 144.398c-3.684-.82-43.15 13.654-62.423 20.994 17.908 5.461 55.464 15.975 62.423 14.337 6.959-1.639 46.22 3.414 64.981 6.144l116.659 17.922c23.196 2.902 71.838 8.295 80.843 6.657 9.005-1.639 35.475 8.193 47.585 13.313l55.259 25.09 88.006 42.5c16.203 7.51 54.236 24.271 76.75 31.235 19.238 8.603 66.345 15.191 87.494 17.41V0l-26.607 1.024c-12.962 1.536-47.482 7.783-81.866 20.482-34.383 12.699-69.927 14.85-83.401 14.337h-59.353c-50.142 4.097-26.094 2.049-50.142 5.12-17.192-2.047-59.012 16.898-77.773 26.627-7.163 3.414-23.127 9.832-29.677 8.193-6.549-1.638-24.901 4.097-33.258 7.169L92.099 137.741c-8.357 2.56-25.992 7.476-29.676 6.657Z" fill="url(#a)"/>
  <defs>
    <linearGradient id="a" x1="476.87" y1="48.645" x2="427.68" y2="251.911" gradientUnits="userSpaceOnUse">
      <stop stop-color="#E5E4FE"/>
      <stop offset="1" stop-color="#D1DCFF"/>
    </linearGradient>
  </defs>
</svg>
